<mxfile host="app.diagrams.net" modified="2021-06-07T03:22:04.358Z" agent="5.0 (Windows NT 6.1; Win64; x64) AppleWebKit/537.36 (KHTML, like Gecko) Chrome/87.0.4280.88 Safari/537.36" etag="E7uZa29cy5xdoHnfcGqy" version="14.7.3" type="github">
  <diagram id="Izxf5I2hJnjqtKAoqMFh" name="Page-1">
    <mxGraphModel dx="1848" dy="462" grid="1" gridSize="10" guides="1" tooltips="1" connect="1" arrows="1" fold="1" page="1" pageScale="1" pageWidth="827" pageHeight="1169" math="0" shadow="0">
      <root>
        <mxCell id="0" />
        <mxCell id="1" parent="0" />
        <mxCell id="7Ih--iohBZrJec54zn6r-1" style="edgeStyle=orthogonalEdgeStyle;rounded=0;orthogonalLoop=1;jettySize=auto;html=1;exitX=1;exitY=0.5;exitDx=0;exitDy=0;" parent="1" source="7Ih--iohBZrJec54zn6r-2" target="7Ih--iohBZrJec54zn6r-5" edge="1">
          <mxGeometry relative="1" as="geometry" />
        </mxCell>
        <mxCell id="7Ih--iohBZrJec54zn6r-2" value="&lt;font style=&quot;font-size: 18px&quot;&gt;污水水样&lt;/font&gt;" style="rounded=1;whiteSpace=wrap;html=1;fillColor=#dae8fc;strokeColor=#6c8ebf;" parent="1" vertex="1">
          <mxGeometry x="-710" y="374" width="120" height="60" as="geometry" />
        </mxCell>
        <mxCell id="7Ih--iohBZrJec54zn6r-3" style="edgeStyle=orthogonalEdgeStyle;rounded=0;orthogonalLoop=1;jettySize=auto;html=1;exitX=1;exitY=0.5;exitDx=0;exitDy=0;" parent="1" source="7Ih--iohBZrJec54zn6r-5" target="7Ih--iohBZrJec54zn6r-8" edge="1">
          <mxGeometry relative="1" as="geometry" />
        </mxCell>
        <mxCell id="3uiYYxhz1NoKJBfetkJm-8" style="edgeStyle=orthogonalEdgeStyle;rounded=0;orthogonalLoop=1;jettySize=auto;html=1;exitX=0.5;exitY=1;exitDx=0;exitDy=0;" edge="1" parent="1" source="7Ih--iohBZrJec54zn6r-5" target="7Ih--iohBZrJec54zn6r-13">
          <mxGeometry relative="1" as="geometry" />
        </mxCell>
        <mxCell id="7Ih--iohBZrJec54zn6r-5" value="&lt;font style=&quot;font-size: 18px&quot;&gt;大肠杆菌&lt;br&gt;&amp;nbsp;&amp;gt; 120000 MPN/L 或&lt;br&gt;肠球菌&lt;br&gt;&amp;nbsp;&amp;gt; 50000 MPN/L&lt;/font&gt;" style="rhombus;whiteSpace=wrap;html=1;fillColor=#ffe6cc;strokeColor=#d79b00;" parent="1" vertex="1">
          <mxGeometry x="-550" y="304" width="220" height="200" as="geometry" />
        </mxCell>
        <mxCell id="7Ih--iohBZrJec54zn6r-7" style="edgeStyle=orthogonalEdgeStyle;rounded=0;orthogonalLoop=1;jettySize=auto;html=1;exitX=1;exitY=0.5;exitDx=0;exitDy=0;entryX=0;entryY=0.5;entryDx=0;entryDy=0;" parent="1" source="7Ih--iohBZrJec54zn6r-8" target="7Ih--iohBZrJec54zn6r-22" edge="1">
          <mxGeometry relative="1" as="geometry" />
        </mxCell>
        <mxCell id="3uiYYxhz1NoKJBfetkJm-4" style="edgeStyle=orthogonalEdgeStyle;rounded=0;orthogonalLoop=1;jettySize=auto;html=1;exitX=0.5;exitY=1;exitDx=0;exitDy=0;" edge="1" parent="1" source="7Ih--iohBZrJec54zn6r-8" target="7Ih--iohBZrJec54zn6r-11">
          <mxGeometry relative="1" as="geometry" />
        </mxCell>
        <mxCell id="7Ih--iohBZrJec54zn6r-8" value="&lt;font style=&quot;font-size: 18px&quot;&gt;LAS&lt;br&gt;&amp;nbsp;&amp;gt; 0.25 mg/L&lt;/font&gt;" style="rhombus;whiteSpace=wrap;html=1;fillColor=#ffe6cc;strokeColor=#d79b00;" parent="1" vertex="1">
          <mxGeometry x="-280" y="339" width="160" height="130" as="geometry" />
        </mxCell>
        <mxCell id="3uiYYxhz1NoKJBfetkJm-6" style="edgeStyle=orthogonalEdgeStyle;rounded=0;orthogonalLoop=1;jettySize=auto;html=1;exitX=0.5;exitY=1;exitDx=0;exitDy=0;entryX=0.5;entryY=0;entryDx=0;entryDy=0;" edge="1" parent="1" source="7Ih--iohBZrJec54zn6r-11" target="7Ih--iohBZrJec54zn6r-12">
          <mxGeometry relative="1" as="geometry" />
        </mxCell>
        <mxCell id="3uiYYxhz1NoKJBfetkJm-9" style="edgeStyle=orthogonalEdgeStyle;rounded=0;orthogonalLoop=1;jettySize=auto;html=1;exitX=0;exitY=0.5;exitDx=0;exitDy=0;entryX=1;entryY=0.5;entryDx=0;entryDy=0;" edge="1" parent="1" source="7Ih--iohBZrJec54zn6r-11" target="7Ih--iohBZrJec54zn6r-13">
          <mxGeometry relative="1" as="geometry" />
        </mxCell>
        <mxCell id="7Ih--iohBZrJec54zn6r-11" value="&lt;span style=&quot;font-size: 18px&quot;&gt;LAS /&amp;nbsp;氨氮&lt;/span&gt;&lt;span style=&quot;font-size: 18px&quot;&gt;&amp;nbsp;&amp;lt; 0.2 &lt;br&gt;且 氨氮&amp;nbsp;&lt;/span&gt;&lt;span style=&quot;font-size: 18px&quot;&gt;/ 钾 &amp;gt;1.0&lt;br&gt;&lt;/span&gt;" style="rhombus;whiteSpace=wrap;html=1;fillColor=#ffe6cc;strokeColor=#d79b00;" parent="1" vertex="1">
          <mxGeometry x="-295" y="520" width="190" height="140" as="geometry" />
        </mxCell>
        <mxCell id="7Ih--iohBZrJec54zn6r-12" value="&lt;font style=&quot;font-size: 18px&quot;&gt;洗涤污水&lt;/font&gt;" style="rounded=1;whiteSpace=wrap;html=1;fillColor=#dae8fc;strokeColor=#6c8ebf;" parent="1" vertex="1">
          <mxGeometry x="-260" y="700" width="120" height="60" as="geometry" />
        </mxCell>
        <mxCell id="7Ih--iohBZrJec54zn6r-13" value="&lt;font style=&quot;font-size: 18px&quot;&gt;生活污水&lt;/font&gt;" style="rounded=1;whiteSpace=wrap;html=1;fillColor=#dae8fc;strokeColor=#6c8ebf;" parent="1" vertex="1">
          <mxGeometry x="-500" y="560" width="120" height="60" as="geometry" />
        </mxCell>
        <mxCell id="7Ih--iohBZrJec54zn6r-14" value="&lt;font style=&quot;font-size: 18px&quot;&gt;是&lt;/font&gt;" style="text;html=1;strokeColor=none;fillColor=none;align=center;verticalAlign=middle;whiteSpace=wrap;rounded=0;" parent="1" vertex="1">
          <mxGeometry x="-438" y="510" width="50" height="30" as="geometry" />
        </mxCell>
        <mxCell id="7Ih--iohBZrJec54zn6r-15" value="&lt;font style=&quot;font-size: 18px&quot;&gt;是&lt;/font&gt;" style="text;html=1;strokeColor=none;fillColor=none;align=center;verticalAlign=middle;whiteSpace=wrap;rounded=0;" parent="1" vertex="1">
          <mxGeometry x="-197" y="480" width="50" height="30" as="geometry" />
        </mxCell>
        <mxCell id="7Ih--iohBZrJec54zn6r-16" value="&lt;font style=&quot;font-size: 18px&quot;&gt;是&lt;/font&gt;" style="text;html=1;strokeColor=none;fillColor=none;align=center;verticalAlign=middle;whiteSpace=wrap;rounded=0;" parent="1" vertex="1">
          <mxGeometry x="-350" y="555" width="50" height="30" as="geometry" />
        </mxCell>
        <mxCell id="7Ih--iohBZrJec54zn6r-17" value="&lt;font style=&quot;font-size: 18px&quot;&gt;否&lt;/font&gt;" style="text;html=1;strokeColor=none;fillColor=none;align=center;verticalAlign=middle;whiteSpace=wrap;rounded=0;" parent="1" vertex="1">
          <mxGeometry x="70" y="375" width="50" height="30" as="geometry" />
        </mxCell>
        <mxCell id="7Ih--iohBZrJec54zn6r-18" value="&lt;font style=&quot;font-size: 18px&quot;&gt;否&lt;/font&gt;" style="text;html=1;strokeColor=none;fillColor=none;align=center;verticalAlign=middle;whiteSpace=wrap;rounded=0;" parent="1" vertex="1">
          <mxGeometry x="-197" y="660" width="50" height="30" as="geometry" />
        </mxCell>
        <mxCell id="7Ih--iohBZrJec54zn6r-19" value="&lt;font style=&quot;font-size: 18px&quot;&gt;否&lt;/font&gt;" style="text;html=1;strokeColor=none;fillColor=none;align=center;verticalAlign=middle;whiteSpace=wrap;rounded=0;" parent="1" vertex="1">
          <mxGeometry x="-335" y="375" width="50" height="30" as="geometry" />
        </mxCell>
        <mxCell id="7Ih--iohBZrJec54zn6r-20" style="edgeStyle=orthogonalEdgeStyle;rounded=0;orthogonalLoop=1;jettySize=auto;html=1;exitX=1;exitY=0.5;exitDx=0;exitDy=0;" parent="1" source="7Ih--iohBZrJec54zn6r-22" target="7Ih--iohBZrJec54zn6r-30" edge="1">
          <mxGeometry relative="1" as="geometry" />
        </mxCell>
        <mxCell id="3uiYYxhz1NoKJBfetkJm-2" style="edgeStyle=orthogonalEdgeStyle;rounded=0;orthogonalLoop=1;jettySize=auto;html=1;exitX=0.5;exitY=1;exitDx=0;exitDy=0;" edge="1" parent="1" source="7Ih--iohBZrJec54zn6r-22" target="7Ih--iohBZrJec54zn6r-24">
          <mxGeometry relative="1" as="geometry" />
        </mxCell>
        <mxCell id="7Ih--iohBZrJec54zn6r-22" value="&lt;span style=&quot;font-size: 18px&quot;&gt;高浓度氟化物&lt;/span&gt;" style="rhombus;whiteSpace=wrap;html=1;fillColor=#ffe6cc;strokeColor=#d79b00;" parent="1" vertex="1">
          <mxGeometry x="-80" y="339" width="160" height="130" as="geometry" />
        </mxCell>
        <mxCell id="7Ih--iohBZrJec54zn6r-23" value="&lt;font style=&quot;font-size: 18px&quot;&gt;否&lt;/font&gt;" style="text;html=1;strokeColor=none;fillColor=none;align=center;verticalAlign=middle;whiteSpace=wrap;rounded=0;" parent="1" vertex="1">
          <mxGeometry x="-131" y="374" width="50" height="30" as="geometry" />
        </mxCell>
        <mxCell id="7Ih--iohBZrJec54zn6r-24" value="&lt;font style=&quot;font-size: 18px&quot;&gt;工业污水&lt;/font&gt;" style="rounded=1;whiteSpace=wrap;html=1;fillColor=#dae8fc;strokeColor=#6c8ebf;" parent="1" vertex="1">
          <mxGeometry x="-60" y="540" width="120" height="60" as="geometry" />
        </mxCell>
        <mxCell id="7Ih--iohBZrJec54zn6r-25" value="&lt;font style=&quot;font-size: 18px&quot;&gt;是&lt;/font&gt;" style="text;html=1;strokeColor=none;fillColor=none;align=center;verticalAlign=middle;whiteSpace=wrap;rounded=0;" parent="1" vertex="1">
          <mxGeometry y="480" width="50" height="30" as="geometry" />
        </mxCell>
        <mxCell id="7Ih--iohBZrJec54zn6r-26" value="&lt;font style=&quot;font-size: 18px&quot;&gt;自来水&lt;/font&gt;" style="rounded=1;whiteSpace=wrap;html=1;fillColor=#dae8fc;strokeColor=#6c8ebf;" parent="1" vertex="1">
          <mxGeometry x="330" y="374" width="120" height="60" as="geometry" />
        </mxCell>
        <mxCell id="7Ih--iohBZrJec54zn6r-27" value="&lt;font style=&quot;font-size: 18px&quot;&gt;否&lt;/font&gt;" style="text;html=1;strokeColor=none;fillColor=none;align=center;verticalAlign=middle;whiteSpace=wrap;rounded=0;" parent="1" vertex="1">
          <mxGeometry x="280" y="375" width="50" height="30" as="geometry" />
        </mxCell>
        <mxCell id="7Ih--iohBZrJec54zn6r-28" style="edgeStyle=orthogonalEdgeStyle;rounded=0;orthogonalLoop=1;jettySize=auto;html=1;exitX=1;exitY=0.5;exitDx=0;exitDy=0;entryX=0;entryY=0.5;entryDx=0;entryDy=0;" parent="1" source="7Ih--iohBZrJec54zn6r-30" target="7Ih--iohBZrJec54zn6r-26" edge="1">
          <mxGeometry relative="1" as="geometry" />
        </mxCell>
        <mxCell id="3uiYYxhz1NoKJBfetkJm-1" style="edgeStyle=orthogonalEdgeStyle;rounded=0;orthogonalLoop=1;jettySize=auto;html=1;exitX=0.5;exitY=1;exitDx=0;exitDy=0;entryX=0.5;entryY=0;entryDx=0;entryDy=0;" edge="1" parent="1" source="7Ih--iohBZrJec54zn6r-30" target="7Ih--iohBZrJec54zn6r-31">
          <mxGeometry relative="1" as="geometry" />
        </mxCell>
        <mxCell id="7Ih--iohBZrJec54zn6r-30" value="&lt;span style=&quot;font-size: 18px&quot;&gt;高浓度钙镁离子&lt;/span&gt;" style="rhombus;whiteSpace=wrap;html=1;fillColor=#ffe6cc;strokeColor=#d79b00;" parent="1" vertex="1">
          <mxGeometry x="120" y="339" width="160" height="130" as="geometry" />
        </mxCell>
        <mxCell id="7Ih--iohBZrJec54zn6r-31" value="&lt;font style=&quot;font-size: 18px&quot;&gt;地下水&lt;/font&gt;" style="rounded=1;whiteSpace=wrap;html=1;fillColor=#dae8fc;strokeColor=#6c8ebf;" parent="1" vertex="1">
          <mxGeometry x="140" y="540" width="120" height="60" as="geometry" />
        </mxCell>
        <mxCell id="7Ih--iohBZrJec54zn6r-32" value="&lt;font style=&quot;font-size: 18px&quot;&gt;是&lt;/font&gt;" style="text;html=1;strokeColor=none;fillColor=none;align=center;verticalAlign=middle;whiteSpace=wrap;rounded=0;" parent="1" vertex="1">
          <mxGeometry x="210" y="480" width="50" height="30" as="geometry" />
        </mxCell>
      </root>
    </mxGraphModel>
  </diagram>
</mxfile>
